NotoSansSundanese-Bold.ufo
<glyph name="hyphen" format="1">
  <advance width="372"/>
  <unicode hex="002D"/>
  <outline>
    <contour>
      <point x="50" y="228" type="line"/>
      <point x="322" y="228" type="line"/>
      <point x="322" y="360" type="line"/>
      <point x="50" y="360" type="line"/>
    </contour>
  </outline>
</glyph>
<glyph name="uni1B80" format="2">
  <unicode hex="1B80"/>
  <outline>
    <contour>
      <point x="-236" y="739" type="curve" smooth="yes"/>
      <point x="-161" y="739"/>
      <point x="-99" y="801"/>
      <point x="-99" y="878" type="curve" smooth="yes"/>
      <point x="-99" y="953"/>
      <point x="-161" y="1015"/>
      <point x="-236" y="1015" type="curve" smooth="yes"/>
      <point x="-313" y="1015"/>
      <point x="-374" y="953"/>
      <point x="-374" y="878" type="curve" smooth="yes"/>
      <point x="-374" y="801"/>
      <point x="-313" y="739"/>
    </contour>
    <contour>
      <point x="-236" y="821" type="curve" smooth="yes"/>
      <point x="-269" y="821"/>
      <point x="-292" y="845"/>
      <point x="-292" y="878" type="curve" smooth="yes"/>
      <point x="-292" y="910"/>
      <point x="-269" y="932"/>
      <point x="-236" y="932" type="curve" smooth="yes"/>
      <point x="-204" y="932"/>
      <point x="-182" y="910"/>
      <point x="-182" y="878" type="curve" smooth="yes"/>
      <point x="-182" y="845"/>
      <point x="-204" y="821"/>
    </contour>
  </outline>
</glyph>
<glyph name="uni1B81" format="1">
  <advance width="0"/>
  <unicode hex="1B81"/>
  <outline>
    <contour>
      <point x="-252" y="756" type="line"/>
      <point x="-166" y="756" type="line"/>
      <point x="-66" y="927" type="line"/>
      <point x="-133" y="965" type="line"/>
      <point x="-206" y="846" type="line"/>
      <point x="-269" y="939" type="line"/>
      <point x="-359" y="939" type="line"/>
      <point x="-427" y="842" type="line"/>
      <point x="-373" y="804" type="line"/>
      <point x="-328" y="866" type="line"/>
    </contour>
  </outline>
</glyph>
<glyph name="uni1B82" format="2">
  <advance width="425"/>
  <unicode hex="1B82"/>
  <outline>
    <contour>
      <point x="81" y="0" type="line"/>
      <point x="183" y="0" type="line"/>
      <point x="90" y="284" type="line"/>
      <point x="-12" y="284" type="line"/>
    </contour>
    <contour>
      <point x="246" y="0" type="line"/>
      <point x="348" y="0" type="line"/>
      <point x="255" y="284" type="line"/>
      <point x="153" y="284" type="line"/>
    </contour>
  </outline>
</glyph>
<glyph name="uni1B83" format="2">
  <advance width="898"/>
  <unicode hex="1B83"/>
  <outline>
    <contour>
      <point x="501" y="-15" type="curve" smooth="yes"/>
      <point x="720" y="-15"/>
      <point x="844" y="78"/>
      <point x="844" y="243" type="curve" smooth="yes"/>
      <point x="844" y="370"/>
      <point x="728" y="442"/>
      <point x="610" y="442" type="curve"/>
      <point x="829" y="584" type="line"/>
      <point x="841" y="714" type="line"/>
      <point x="383" y="714" type="line"/>
      <point x="335" y="562" type="line"/>
      <point x="597" y="562" type="line"/>
      <point x="416" y="442" type="line"/>
      <point x="378" y="323" type="line"/>
      <point x="506" y="323" type="line" smooth="yes"/>
      <point x="623" y="323"/>
      <point x="669" y="295"/>
      <point x="669" y="243" type="curve" smooth="yes"/>
      <point x="669" y="175"/>
      <point x="606" y="139"/>
      <point x="498" y="139" type="curve" smooth="yes"/>
      <point x="334" y="139"/>
      <point x="210" y="241"/>
      <point x="210" y="411" type="curve" smooth="yes"/>
      <point x="210" y="515"/>
      <point x="244" y="626"/>
      <point x="320" y="736" type="curve"/>
      <point x="174" y="736" type="line"/>
      <point x="107" y="649"/>
      <point x="59" y="519"/>
      <point x="59" y="411" type="curve" smooth="yes"/>
      <point x="59" y="131"/>
      <point x="215" y="-15"/>
    </contour>
  </outline>
</glyph>
<glyph name="uni1B84" format="2">
  <advance width="595"/>
  <unicode hex="1B84"/>
  <outline>
    <contour>
      <point x="-32" y="0" type="line"/>
      <point x="479" y="0" type="line"/>
      <point x="567" y="266" type="line"/>
      <point x="383" y="266" type="line"/>
      <point x="346" y="159" type="line"/>
      <point x="207" y="159" type="line"/>
      <point x="337" y="555" type="line"/>
      <point x="461" y="555" type="line"/>
      <point x="514" y="714" type="line"/>
      <point x="204" y="714" type="line"/>
    </contour>
  </outline>
</glyph>
<glyph name="uni1B85" format="2">
  <advance width="815"/>
  <unicode hex="1B85"/>
  <outline>
    <contour>
      <point x="75" y="0" type="line"/>
      <point x="735" y="0" type="line"/>
      <point x="767" y="100" type="line"/>
      <point x="698" y="159" type="line" smooth="yes"/>
      <point x="654" y="196"/>
      <point x="615" y="227"/>
      <point x="615" y="239" type="curve" smooth="yes"/>
      <point x="615" y="248"/>
      <point x="622" y="256"/>
      <point x="661" y="256" type="curve" smooth="yes"/>
      <point x="796" y="256" type="line"/>
      <point x="848" y="411" type="line"/>
      <point x="613" y="411" type="line" smooth="yes"/>
      <point x="474" y="411"/>
      <point x="424" y="354"/>
      <point x="424" y="281" type="curve" smooth="yes"/>
      <point x="424" y="247"/>
      <point x="443" y="216"/>
      <point x="468" y="188" type="curve" smooth="yes"/>
      <point x="498" y="154" type="line"/>
      <point x="322" y="154" type="line"/>
      <point x="507" y="714" type="line"/>
      <point x="102" y="714" type="line"/>
      <point x="50" y="555" type="line"/>
      <point x="258" y="555" type="line"/>
    </contour>
  </outline>
</glyph>
<glyph name="uni1B86" format="2">
  <advance width="911"/>
  <unicode hex="1B86"/>
  <outline>
    <contour>
      <point x="501" y="-15" type="curve" smooth="yes"/>
      <point x="720" y="-15"/>
      <point x="844" y="78"/>
      <point x="844" y="240" type="curve" smooth="yes"/>
      <point x="844" y="368"/>
      <point x="718" y="429"/>
      <point x="597" y="429" type="curve"/>
      <point x="617" y="441"/>
      <point x="659" y="450"/>
      <point x="705" y="450" type="curve" smooth="yes"/>
      <point x="771" y="450"/>
      <point x="792" y="394"/>
      <point x="842" y="394" type="curve" smooth="yes"/>
      <point x="868" y="394"/>
      <point x="887" y="415"/>
      <point x="887" y="440" type="curve" smooth="yes"/>
      <point x="887" y="474"/>
      <point x="856" y="512"/>
      <point x="783" y="512" type="curve" smooth="yes"/>
      <point x="743" y="512"/>
      <point x="710" y="502"/>
      <point x="690" y="496" type="curve"/>
      <point x="829" y="584" type="line"/>
      <point x="841" y="714" type="line"/>
      <point x="383" y="714" type="line"/>
      <point x="335" y="562" type="line"/>
      <point x="600" y="562" type="line"/>
      <point x="416" y="442" type="line"/>
      <point x="378" y="323" type="line"/>
      <point x="506" y="323" type="line" smooth="yes"/>
      <point x="623" y="323"/>
      <point x="669" y="295"/>
      <point x="669" y="243" type="curve" smooth="yes"/>
      <point x="669" y="175"/>
      <point x="606" y="139"/>
      <point x="498" y="139" type="curve" smooth="yes"/>
      <point x="334" y="139"/>
      <point x="210" y="241"/>
      <point x="210" y="411" type="curve" smooth="yes"/>
      <point x="210" y="515"/>
      <point x="244" y="626"/>
      <point x="320" y="736" type="curve"/>
      <point x="174" y="736" type="line"/>
      <point x="107" y="649"/>
      <point x="59" y="519"/>
      <point x="59" y="411" type="curve" smooth="yes"/>
      <point x="59" y="131"/>
      <point x="215" y="-15"/>
    </contour>
  </outline>
</glyph>
<glyph name="uni1B87" format="2">
  <advance width="989"/>
  <unicode hex="1B87"/>
  <outline>
    <contour>
      <point x="137" y="0" type="line"/>
      <point x="618" y="0" type="line"/>
      <point x="681" y="184" type="line" smooth="yes"/>
      <point x="698" y="233"/>
      <point x="707" y="253"/>
      <point x="736" y="253" type="curve" smooth="yes"/>
      <point x="757" y="253"/>
      <point x="765" y="243"/>
      <point x="765" y="223" type="curve" smooth="yes"/>
      <point x="765" y="204"/>
      <point x="757" y="177"/>
      <point x="750" y="155" type="curve" smooth="yes"/>
      <point x="702" y="0" type="line"/>
      <point x="892" y="0" type="line"/>
      <point x="944" y="160" type="line" smooth="yes"/>
      <point x="954" y="190"/>
      <point x="959" y="218"/>
      <point x="959" y="243" type="curve" smooth="yes"/>
      <point x="959" y="347"/>
      <point x="874" y="399"/>
      <point x="756" y="399" type="curve" smooth="yes"/>
      <point x="602" y="399"/>
      <point x="546" y="330"/>
      <point x="515" y="246" type="curve" smooth="yes"/>
      <point x="483" y="159" type="line"/>
      <point x="370" y="159" type="line"/>
      <point x="573" y="714" type="line"/>
      <point x="71" y="714" type="line"/>
      <point x="231" y="261" type="line"/>
    </contour>
    <contour>
      <point x="303" y="415" type="line"/>
      <point x="263" y="560" type="line"/>
      <point x="355" y="560" type="line"/>
    </contour>
  </outline>
</glyph>
<glyph name="uni1B88" format="2">
  <advance width="795"/>
  <unicode hex="1B88"/>
  <outline>
    <contour>
      <point x="405" y="-13" type="curve" smooth="yes"/>
      <point x="650" y="-13"/>
      <point x="766" y="150"/>
      <point x="766" y="334" type="curve" smooth="yes"/>
      <point x="766" y="404" type="line"/>
      <point x="680" y="404" type="line" smooth="yes"/>
      <point x="484" y="404"/>
      <point x="441" y="434"/>
      <point x="441" y="481" type="curve" smooth="yes"/>
      <point x="441" y="541"/>
      <point x="519" y="569"/>
      <point x="692" y="569" type="curve" smooth="yes"/>
      <point x="717" y="569" type="line"/>
      <point x="759" y="714" type="line"/>
      <point x="701" y="714" type="line" smooth="yes"/>
      <point x="420" y="714"/>
      <point x="279" y="649"/>
      <point x="279" y="481" type="curve" smooth="yes"/>
      <point x="279" y="334"/>
      <point x="397" y="260"/>
      <point x="580" y="260" type="curve"/>
      <point x="580" y="198"/>
      <point x="522" y="135"/>
      <point x="412" y="135" type="curve" smooth="yes"/>
      <point x="269" y="135"/>
      <point x="170" y="244"/>
      <point x="170" y="428" type="curve" smooth="yes"/>
      <point x="170" y="465" type="line"/>
      <point x="9" y="465" type="line"/>
      <point x="9" y="411" type="line" smooth="yes"/>
      <point x="9" y="193"/>
      <point x="121" y="-13"/>
    </contour>
  </outline>
</glyph>
<glyph name="uni1B89" format="2">
  <advance width="871"/>
  <unicode hex="1B89"/>
  <outline>
    <contour>
      <point x="501" y="-15" type="curve" smooth="yes"/>
      <point x="747" y="-15"/>
      <point x="844" y="69"/>
      <point x="844" y="206" type="curve" smooth="yes"/>
      <point x="844" y="311"/>
      <point x="742" y="382"/>
      <point x="640" y="382" type="curve"/>
      <point x="829" y="464" type="line"/>
      <point x="841" y="594" type="line"/>
      <point x="383" y="594" type="line"/>
      <point x="339" y="452" type="line"/>
      <point x="587" y="452" type="line"/>
      <point x="416" y="382" type="line"/>
      <point x="378" y="266" type="line"/>
      <point x="506" y="266" type="line" smooth="yes"/>
      <point x="623" y="266"/>
      <point x="669" y="245"/>
      <point x="669" y="206" type="curve" smooth="yes"/>
      <point x="669" y="169"/>
      <point x="622" y="139"/>
      <point x="498" y="139" type="curve" smooth="yes"/>
      <point x="334" y="139"/>
      <point x="210" y="241"/>
      <point x="210" y="411" type="curve" smooth="yes"/>
      <point x="210" y="515"/>
      <point x="244" y="626"/>
      <point x="320" y="736" type="curve"/>
      <point x="174" y="736" type="line"/>
      <point x="107" y="649"/>
      <point x="59" y="519"/>
      <point x="59" y="411" type="curve" smooth="yes"/>
      <point x="59" y="131"/>
      <point x="215" y="-15"/>
    </contour>
    <contour>
      <point x="553" y="616" type="line"/>
      <point x="649" y="616" type="line"/>
      <point x="808" y="768" type="line"/>
      <point x="670" y="768" type="line"/>
      <point x="601" y="707" type="line"/>
      <point x="531" y="768" type="line"/>
      <point x="393" y="768" type="line"/>
    </contour>
  </outline>
</glyph>
<glyph name="uni1B8A" format="1">
  <advance width="858"/>
  <unicode hex="1B8A"/>
  <outline>
    <contour>
      <point x="486" y="0" type="line"/>
      <point x="670" y="0" type="line"/>
      <point x="908" y="714" type="line"/>
      <point x="532" y="714" type="line"/>
      <point x="479" y="555" type="line"/>
      <point x="673" y="555" type="line"/>
    </contour>
    <contour>
      <point x="52" y="0" type="line"/>
      <point x="236" y="0" type="line"/>
      <point x="474" y="714" type="line"/>
      <point x="98" y="714" type="line"/>
      <point x="45" y="555" type="line"/>
      <point x="239" y="555" type="line"/>
    </contour>
  </outline>
</glyph>
<glyph name="uni1B8B" format="2">
  <advance width="970"/>
  <unicode hex="1B8B"/>
  <outline>
    <contour>
      <point x="-43" y="0" type="line"/>
      <point x="156" y="0" type="line"/>
      <point x="340" y="555" type="line"/>
      <point x="459" y="555" type="line"/>
      <point x="275" y="0" type="line"/>
      <point x="474" y="0" type="line"/>
      <point x="657" y="555" type="line"/>
      <point x="776" y="555" type="line"/>
      <point x="592" y="0" type="line"/>
      <point x="793" y="0" type="line"/>
      <point x="1027" y="714" type="line"/>
      <point x="193" y="714" type="line"/>
    </contour>
  </outline>
</glyph>
<glyph name="uni1B8C" format="2">
  <advance width="878"/>
  <unicode hex="1B8C"/>
  <outline>
    <contour>
      <point x="75" y="0" type="line"/>
      <point x="714" y="0" type="line"/>
      <point x="846" y="401" type="line"/>
      <point x="510" y="401" type="line"/>
      <point x="457" y="242" type="line"/>
      <point x="597" y="242" type="line"/>
      <point x="570" y="159" type="line"/>
      <point x="324" y="159" type="line"/>
      <point x="507" y="714" type="line"/>
      <point x="102" y="714" type="line"/>
      <point x="50" y="555" type="line"/>
      <point x="258" y="555" type="line"/>
    </contour>
  </outline>
</glyph>
<glyph name="uni1B8D" format="2">
  <advance width="828"/>
  <unicode hex="1B8D"/>
  <outline>
    <contour>
      <point x="75" y="0" type="line"/>
      <point x="798" y="0" type="line"/>
      <point x="669" y="400" type="line"/>
      <point x="474" y="400" type="line"/>
      <point x="551" y="159" type="line"/>
      <point x="324" y="159" type="line"/>
      <point x="507" y="714" type="line"/>
      <point x="102" y="714" type="line"/>
      <point x="50" y="555" type="line"/>
      <point x="258" y="555" type="line"/>
    </contour>
  </outline>
</glyph>
<glyph name="uni1B8E" format="2">
  <advance width="824"/>
  <unicode hex="1B8E"/>
  <outline>
    <contour>
      <point x="466" y="-14" type="curve" smooth="yes"/>
      <point x="560" y="-14"/>
      <point x="648" y="18"/>
      <point x="704" y="187" type="curve" smooth="yes"/>
      <point x="879" y="714" type="line"/>
      <point x="691" y="714" type="line"/>
      <point x="537" y="249" type="line" smooth="yes"/>
      <point x="514" y="180"/>
      <point x="495" y="156"/>
      <point x="466" y="156" type="curve" smooth="yes"/>
      <point x="433" y="156"/>
      <point x="400" y="173"/>
      <point x="360" y="207" type="curve"/>
      <point x="527" y="714" type="line"/>
      <point x="143" y="714" type="line"/>
      <point x="89" y="555" type="line"/>
      <point x="294" y="555" type="line"/>
      <point x="206" y="289" type="line"/>
      <point x="180" y="302"/>
      <point x="148" y="311"/>
      <point x="109" y="311" type="curve" smooth="yes"/>
      <point x="8" y="311"/>
      <point x="-59" y="240"/>
      <point x="-59" y="146" type="curve" smooth="yes"/>
      <point x="-59" y="29"/>
      <point x="28" y="-15"/>
      <point x="122" y="-15" type="curve" smooth="yes"/>
      <point x="183" y="-15"/>
      <point x="247" y="5"/>
      <point x="287" y="50" type="curve"/>
      <point x="339" y="12"/>
      <point x="389" y="-14"/>
    </contour>
    <contour>
      <point x="106" y="94" type="curve" smooth="yes"/>
      <point x="77" y="94"/>
      <point x="60" y="109"/>
      <point x="60" y="133" type="curve" smooth="yes"/>
      <point x="60" y="163"/>
      <point x="82" y="174"/>
      <point x="108" y="174" type="curve" smooth="yes"/>
      <point x="133" y="174"/>
      <point x="153" y="163"/>
      <point x="167" y="147" type="curve"/>
      <point x="157" y="114"/>
      <point x="137" y="94"/>
    </contour>
  </outline>
</glyph>
<glyph name="uni1B8F" format="2">
  <advance width="1089"/>
  <unicode hex="1B8F"/>
  <outline>
    <contour>
      <point x="-19" y="0" type="line"/>
      <point x="447" y="0" type="line"/>
      <point x="528" y="257" type="line"/>
      <point x="618" y="0" type="line"/>
      <point x="811" y="0" type="line"/>
      <point x="665" y="419" type="line"/>
      <point x="407" y="419" type="line"/>
      <point x="320" y="163" type="line"/>
      <point x="220" y="163" type="line"/>
      <point x="350" y="555" type="line"/>
      <point x="547" y="555" type="line"/>
      <point x="594" y="714" type="line"/>
      <point x="216" y="714" type="line"/>
    </contour>
    <contour>
      <point x="873" y="0" type="line"/>
      <point x="1059" y="0" type="line"/>
      <point x="913" y="419" type="line"/>
      <point x="725" y="419" type="line"/>
    </contour>
  </outline>
</glyph>
<glyph name="uni1B90" format="2">
  <advance width="954"/>
  <unicode hex="1B90"/>
  <outline>
    <contour>
      <point x="77" y="0" type="line"/>
      <point x="568" y="0" type="line"/>
      <point x="624" y="167" type="line" smooth="yes"/>
      <point x="640" y="216"/>
      <point x="650" y="236"/>
      <point x="679" y="236" type="curve" smooth="yes"/>
      <point x="700" y="236"/>
      <point x="708" y="226"/>
      <point x="708" y="206" type="curve" smooth="yes"/>
      <point x="708" y="187"/>
      <point x="700" y="160"/>
      <point x="693" y="138" type="curve" smooth="yes"/>
      <point x="652" y="0" type="line"/>
      <point x="842" y="0" type="line"/>
      <point x="887" y="143" type="line" smooth="yes"/>
      <point x="896" y="173"/>
      <point x="902" y="201"/>
      <point x="902" y="226" type="curve" smooth="yes"/>
      <point x="902" y="330"/>
      <point x="817" y="382"/>
      <point x="699" y="382" type="curve" smooth="yes"/>
      <point x="545" y="382"/>
      <point x="488" y="313"/>
      <point x="458" y="229" type="curve" smooth="yes"/>
      <point x="433" y="159" type="line"/>
      <point x="326" y="159" type="line"/>
      <point x="509" y="714" type="line"/>
      <point x="97" y="714" type="line"/>
      <point x="45" y="555" type="line"/>
      <point x="260" y="555" type="line"/>
    </contour>
  </outline>
</glyph>
<glyph name="uni1B91" format="2">
  <advance width="1073"/>
  <unicode hex="1B91"/>
  <outline>
    <contour>
      <point x="35" y="0" type="line"/>
      <point x="540" y="0" type="line"/>
      <point x="611" y="216" type="line"/>
      <point x="740" y="0" type="line"/>
      <point x="892" y="0" type="line"/>
      <point x="1130" y="714" type="line"/>
      <point x="593" y="714" type="line"/>
      <point x="530" y="519" type="line"/>
      <point x="712" y="519" type="line"/>
      <point x="728" y="565" type="line"/>
      <point x="896" y="565" type="line"/>
      <point x="788" y="245" type="line"/>
      <point x="645" y="474" type="line"/>
      <point x="506" y="474" type="line"/>
      <point x="401" y="159" type="line"/>
      <point x="272" y="159" type="line"/>
      <point x="455" y="714" type="line"/>
      <point x="63" y="714" type="line"/>
      <point x="10" y="555" type="line"/>
      <point x="218" y="555" type="line"/>
    </contour>
  </outline>
</glyph>
<glyph name="uni1B92" format="2">
  <advance width="978"/>
  <unicode hex="1B92"/>
  <outline>
    <contour>
      <point x="13" y="0" type="line"/>
      <point x="493" y="0" type="line"/>
      <point x="617" y="377" type="line"/>
      <point x="751" y="377" type="line"/>
      <point x="628" y="0" type="line"/>
      <point x="816" y="0" type="line"/>
      <point x="992" y="536" type="line"/>
      <point x="669" y="536" type="line"/>
      <point x="727" y="714" type="line"/>
      <point x="540" y="714" type="line"/>
      <point x="360" y="159" type="line"/>
      <point x="253" y="159" type="line"/>
      <point x="380" y="536" type="line"/>
      <point x="62" y="536" type="line"/>
      <point x="9" y="377" type="line"/>
      <point x="140" y="377" type="line"/>
    </contour>
  </outline>
</glyph>
<glyph name="uni1B93" format="2">
  <advance width="890"/>
  <unicode hex="1B93"/>
  <outline>
    <contour>
      <point x="-22" y="0" type="line"/>
      <point x="493" y="0" type="line"/>
      <point x="575" y="257" type="line"/>
      <point x="665" y="0" type="line"/>
      <point x="860" y="0" type="line"/>
      <point x="714" y="419" type="line"/>
      <point x="454" y="419" type="line"/>
      <point x="367" y="163" type="line"/>
      <point x="217" y="163" type="line"/>
      <point x="347" y="555" type="line"/>
      <point x="625" y="555" type="line"/>
      <point x="672" y="714" type="line"/>
      <point x="214" y="714" type="line"/>
    </contour>
  </outline>
</glyph>
<glyph name="uni1B94" format="1">
  <advance width="770"/>
  <unicode hex="1B94"/>
  <outline>
    <contour>
      <point x="143" y="0" type="line"/>
      <point x="715" y="0" type="line"/>
      <point x="770" y="169" type="line"/>
      <point x="388" y="169" type="line"/>
      <point x="569" y="714" type="line"/>
      <point x="102" y="714" type="line"/>
      <point x="50" y="555" type="line"/>
      <point x="326" y="555" type="line"/>
    </contour>
  </outline>
</glyph>
<glyph name="uni1B95" format="2">
  <advance width="859"/>
  <unicode hex="1B95"/>
  <outline>
    <contour>
      <point x="68" y="0" type="line"/>
      <point x="680" y="0" type="line"/>
      <point x="916" y="714" type="line"/>
      <point x="537" y="714" type="line"/>
      <point x="484" y="555" type="line"/>
      <point x="683" y="555" type="line"/>
      <point x="554" y="163" type="line"/>
      <point x="300" y="163" type="line"/>
      <point x="483" y="714" type="line"/>
      <point x="108" y="714" type="line"/>
      <point x="55" y="555" type="line"/>
      <point x="250" y="555" type="line"/>
    </contour>
  </outline>
</glyph>
<glyph name="uni1B96" format="2">
  <advance width="849"/>
  <unicode hex="1B96"/>
  <outline>
    <contour>
      <point x="58" y="0" type="line"/>
      <point x="670" y="0" type="line"/>
      <point x="906" y="714" type="line"/>
      <point x="726" y="714" type="line"/>
      <point x="544" y="163" type="line"/>
      <point x="290" y="163" type="line"/>
      <point x="473" y="714" type="line"/>
      <point x="98" y="714" type="line"/>
      <point x="45" y="555" type="line"/>
      <point x="240" y="555" type="line"/>
    </contour>
  </outline>
</glyph>
<glyph name="uni1B97" format="2">
  <advance width="761"/>
  <unicode hex="1B97"/>
  <outline>
    <contour>
      <point x="-30" y="0" type="line"/>
      <point x="582" y="0" type="line"/>
      <point x="818" y="714" type="line"/>
      <point x="638" y="714" type="line"/>
      <point x="456" y="163" type="line"/>
      <point x="202" y="163" type="line"/>
      <point x="385" y="714" type="line"/>
      <point x="204" y="714" type="line"/>
    </contour>
  </outline>
</glyph>
<glyph name="uni1B98" format="2">
  <advance width="1015"/>
  <unicode hex="1B98"/>
  <outline>
    <contour>
      <point x="-30" y="0" type="line"/>
      <point x="475" y="0" type="line"/>
      <point x="546" y="216" type="line"/>
      <point x="675" y="0" type="line"/>
      <point x="827" y="0" type="line"/>
      <point x="1065" y="714" type="line"/>
      <point x="530" y="714" type="line"/>
      <point x="467" y="519" type="line"/>
      <point x="649" y="519" type="line"/>
      <point x="665" y="565" type="line"/>
      <point x="831" y="565" type="line"/>
      <point x="723" y="245" type="line"/>
      <point x="580" y="474" type="line"/>
      <point x="441" y="474" type="line"/>
      <point x="336" y="159" type="line"/>
      <point x="207" y="159" type="line"/>
      <point x="338" y="555" type="line"/>
      <point x="412" y="555" type="line"/>
      <point x="462" y="714" type="line"/>
      <point x="204" y="714" type="line"/>
    </contour>
  </outline>
</glyph>
<glyph name="uni1B99" format="2">
  <advance width="805"/>
  <unicode hex="1B99"/>
  <outline>
    <contour>
      <point x="68" y="0" type="line"/>
      <point x="627" y="0" type="line"/>
      <point x="862" y="714" type="line"/>
      <point x="97" y="714" type="line"/>
      <point x="45" y="555" type="line"/>
      <point x="612" y="555" type="line"/>
      <point x="483" y="162" type="line"/>
      <point x="313" y="162" type="line"/>
      <point x="400" y="421" type="line"/>
      <point x="70" y="421" type="line"/>
      <point x="17" y="263" type="line"/>
      <point x="155" y="263" type="line"/>
    </contour>
  </outline>
</glyph>
<glyph name="uni1B9A" format="2">
  <advance width="1032"/>
  <unicode hex="1B9A"/>
  <outline>
    <contour>
      <point x="19" y="0" type="line"/>
      <point x="519" y="0" type="line"/>
      <point x="588" y="213" type="line"/>
      <point x="682" y="0" type="line"/>
      <point x="870" y="0" type="line"/>
      <point x="1046" y="536" type="line"/>
      <point x="859" y="536" type="line"/>
      <point x="756" y="222" type="line"/>
      <point x="662" y="437" type="line"/>
      <point x="753" y="714" type="line"/>
      <point x="566" y="714" type="line"/>
      <point x="385" y="159" type="line"/>
      <point x="255" y="159" type="line"/>
      <point x="383" y="536" type="line"/>
      <point x="68" y="536" type="line"/>
      <point x="9" y="358" type="line"/>
      <point x="140" y="358" type="line"/>
    </contour>
  </outline>
</glyph>
<glyph name="uni1B9B" format="2">
  <advance width="567"/>
  <unicode hex="1B9B"/>
  <outline>
    <contour>
      <point x="186" y="0" type="line"/>
      <point x="372" y="0" type="line"/>
      <point x="423" y="155" type="line"/>
      <point x="527" y="155" type="line"/>
      <point x="574" y="299" type="line"/>
      <point x="470" y="299" type="line"/>
      <point x="542" y="518" type="line"/>
      <point x="68" y="518" type="line"/>
      <point x="20" y="371" type="line"/>
      <point x="309" y="371" type="line"/>
      <point x="285" y="299" type="line"/>
      <point x="79" y="299" type="line"/>
      <point x="32" y="155" type="line"/>
      <point x="238" y="155" type="line"/>
    </contour>
    <contour>
      <point x="38" y="560" type="line"/>
      <point x="556" y="560" type="line"/>
      <point x="607" y="714" type="line"/>
      <point x="89" y="714" type="line"/>
    </contour>
  </outline>
</glyph>
<glyph name="uni1B9C" format="2">
  <advance width="988"/>
  <unicode hex="1B9C"/>
  <outline>
    <contour>
      <point x="-30" y="0" type="line"/>
      <point x="168" y="0" type="line"/>
      <point x="350" y="555" type="line"/>
      <point x="458" y="555" type="line"/>
      <point x="274" y="0" type="line"/>
      <point x="809" y="0" type="line"/>
      <point x="1044" y="714" type="line"/>
      <point x="855" y="714" type="line"/>
      <point x="672" y="159" type="line"/>
      <point x="524" y="159" type="line"/>
      <point x="708" y="714" type="line"/>
      <point x="204" y="714" type="line"/>
    </contour>
  </outline>
</glyph>
<glyph name="uni1B9D" format="2">
  <advance width="752"/>
  <unicode hex="1B9D"/>
  <outline>
    <contour>
      <point x="-30" y="0" type="line"/>
      <point x="649" y="0" type="line"/>
      <point x="776" y="381" type="line"/>
      <point x="385" y="381" type="line"/>
      <point x="332" y="222" type="line"/>
      <point x="527" y="222" type="line"/>
      <point x="505" y="159" type="line"/>
      <point x="219" y="159" type="line"/>
      <point x="350" y="555" type="line"/>
      <point x="561" y="555" type="line"/>
      <point x="612" y="714" type="line"/>
      <point x="206" y="714" type="line"/>
    </contour>
  </outline>
</glyph>
<glyph name="uni1B9E" format="2">
  <advance width="860"/>
  <unicode hex="1B9E"/>
  <outline>
    <contour>
      <point x="484" y="0" type="line"/>
      <point x="671" y="0" type="line"/>
      <point x="750" y="238" type="line"/>
      <point x="840" y="238" type="line"/>
      <point x="893" y="397" type="line"/>
      <point x="803" y="397" type="line"/>
      <point x="909" y="714" type="line"/>
      <point x="525" y="714" type="line"/>
      <point x="472" y="555" type="line"/>
      <point x="671" y="555" type="line"/>
      <point x="617" y="397" type="line"/>
      <point x="517" y="397" type="line"/>
      <point x="464" y="238" type="line"/>
      <point x="564" y="238" type="line"/>
    </contour>
    <contour>
      <point x="42" y="0" type="line"/>
      <point x="229" y="0" type="line"/>
      <point x="308" y="238" type="line"/>
      <point x="398" y="238" type="line"/>
      <point x="451" y="397" type="line"/>
      <point x="361" y="397" type="line"/>
      <point x="467" y="714" type="line"/>
      <point x="81" y="714" type="line"/>
      <point x="28" y="555" type="line"/>
      <point x="229" y="555" type="line"/>
      <point x="175" y="397" type="line"/>
      <point x="76" y="397" type="line"/>
      <point x="23" y="238" type="line"/>
      <point x="122" y="238" type="line"/>
    </contour>
  </outline>
</glyph>
<glyph name="uni1B9F" format="2">
  <advance width="850"/>
  <unicode hex="1B9F"/>
  <outline>
    <contour>
      <point x="55" y="0" type="line"/>
      <point x="244" y="0" type="line"/>
      <point x="323" y="238" type="line"/>
      <point x="549" y="238" type="line"/>
      <point x="469" y="0" type="line"/>
      <point x="658" y="0" type="line"/>
      <point x="896" y="714" type="line"/>
      <point x="86" y="714" type="line"/>
      <point x="33" y="555" type="line"/>
      <point x="242" y="555" type="line"/>
      <point x="188" y="397" type="line"/>
      <point x="86" y="397" type="line"/>
      <point x="33" y="238" type="line"/>
      <point x="135" y="238" type="line"/>
    </contour>
    <contour>
      <point x="376" y="397" type="line"/>
      <point x="428" y="555" type="line"/>
      <point x="656" y="555" type="line"/>
      <point x="602" y="397" type="line"/>
    </contour>
  </outline>
</glyph>
<glyph name="uni1BA0" format="2">
  <advance width="1007"/>
  <unicode hex="1BA0"/>
  <outline>
    <contour>
      <point x="53" y="0" type="line"/>
      <point x="519" y="0" type="line"/>
      <point x="702" y="555" type="line"/>
      <point x="810" y="555" type="line"/>
      <point x="627" y="0" type="line"/>
      <point x="825" y="0" type="line"/>
      <point x="1059" y="714" type="line"/>
      <point x="555" y="714" type="line"/>
      <point x="376" y="162" type="line"/>
      <point x="298" y="162" type="line"/>
      <point x="386" y="421" type="line"/>
      <point x="57" y="421" type="line"/>
      <point x="2" y="263" type="line"/>
      <point x="140" y="263" type="line"/>
    </contour>
  </outline>
</glyph>
<glyph name="uni1BA1" format="2">
  <advance width="322"/>
  <unicode hex="1BA1"/>
  <outline>
    <contour>
      <point x="-644" y="-260" type="line"/>
      <point x="-44" y="-260" type="line"/>
      <point x="115" y="223" type="line"/>
      <point x="170" y="223" type="line"/>
      <point x="150" y="161" type="line"/>
      <point x="252" y="161" type="line"/>
      <point x="303" y="319" type="line"/>
      <point x="35" y="319" type="line"/>
      <point x="-125" y="-170" type="line"/>
      <point x="-513" y="-170" type="line"/>
      <point x="-494" y="-112" type="line"/>
      <point x="-596" y="-112" type="line"/>
    </contour>
  </outline>
</glyph>
<glyph name="uni1BA2" format="2">
  <unicode hex="1BA2"/>
  <outline>
    <contour>
      <point x="-129" y="-288" type="curve" smooth="yes"/>
      <point x="-56" y="-288"/>
      <point x="15" y="-252"/>
      <point x="15" y="-160" type="curve" smooth="yes"/>
      <point x="15" y="-106"/>
      <point x="-23" y="-54"/>
      <point x="-62" y="-21" type="curve"/>
      <point x="-126" y="-79" type="line"/>
      <point x="-98" y="-112"/>
      <point x="-78" y="-139"/>
      <point x="-78" y="-165" type="curve" smooth="yes"/>
      <point x="-78" y="-186"/>
      <point x="-97" y="-202"/>
      <point x="-129" y="-202" type="curve" smooth="yes"/>
      <point x="-219" y="-202"/>
      <point x="-343" y="-74"/>
      <point x="-394" y="-28" type="curve"/>
      <point x="-595" y="-129" type="line"/>
      <point x="-550" y="-214" type="line"/>
      <point x="-407" y="-143" type="line"/>
      <point x="-339" y="-204"/>
      <point x="-244" y="-288"/>
    </contour>
  </outline>
</glyph>
<glyph name="uni1BA3" format="2">
  <unicode hex="1BA3"/>
  <outline>
    <contour>
      <point x="-601" y="-248" type="line"/>
      <point x="-525" y="-248" type="line"/>
      <point x="-480" y="-109" type="line"/>
      <point x="-428" y="-109" type="line"/>
      <point x="-470" y="-240" type="line"/>
      <point x="-328" y="-240" type="line"/>
      <point x="-305" y="-171" type="line"/>
      <point x="-372" y="-171" type="line"/>
      <point x="-329" y="-40" type="line"/>
      <point x="-533" y="-40" type="line"/>
    </contour>
  </outline>
</glyph>
<glyph name="uni1BA4" format="2">
  <unicode hex="1BA4"/>
  <outline>
    <contour>
      <point x="-246" y="742" type="line"/>
      <point x="-146" y="1005" type="line"/>
      <point x="-397" y="1005" type="line"/>
      <point x="-397" y="927" type="line"/>
      <point x="-271" y="927" type="line"/>
      <point x="-307" y="845" type="line"/>
      <point x="-399" y="858" type="line"/>
      <point x="-417" y="788" type="line"/>
    </contour>
  </outline>
</glyph>
<glyph name="uni1BA5" format="2">
  <unicode hex="1BA5"/>
  <outline>
    <contour>
      <point x="-505" y="-248" type="line"/>
      <point x="-424" y="-248" type="line"/>
      <point x="-342" y="-40" type="line"/>
      <point x="-554" y="-40" type="line"/>
      <point x="-554" y="-111" type="line"/>
      <point x="-452" y="-111" type="line"/>
    </contour>
  </outline>
</glyph>
<glyph name="uni1BA6" format="2">
  <advance width="375"/>
  <unicode hex="1BA6"/>
  <outline>
    <contour>
      <point x="14" y="0" type="line"/>
      <point x="302" y="0" type="line"/>
      <point x="332" y="92" type="line"/>
      <point x="156" y="92" type="line"/>
      <point x="186" y="164" type="line"/>
      <point x="292" y="164" type="line"/>
      <point x="317" y="241" type="line"/>
      <point x="220" y="241" type="line"/>
      <point x="286" y="393" type="line"/>
      <point x="22" y="393" type="line"/>
      <point x="-8" y="301" type="line"/>
      <point x="147" y="301" type="line"/>
    </contour>
  </outline>
</glyph>
<glyph name="uni1BA7" format="2">
  <advance width="375"/>
  <unicode hex="1BA7"/>
  <outline>
    <contour>
      <point x="25" y="0" type="line"/>
      <point x="312" y="0" type="line"/>
      <point x="342" y="92" type="line"/>
      <point x="166" y="92" type="line"/>
      <point x="297" y="393" type="line"/>
      <point x="34" y="393" type="line"/>
      <point x="4" y="301" type="line"/>
      <point x="158" y="301" type="line"/>
      <point x="131" y="241" type="line"/>
      <point x="33" y="241" type="line"/>
      <point x="8" y="164" type="line"/>
      <point x="96" y="164" type="line"/>
    </contour>
  </outline>
</glyph>
<glyph name="uni1BA8" format="2">
  <unicode hex="1BA8"/>
  <outline>
    <contour>
      <point x="-291" y="756" type="line"/>
      <point x="-205" y="756" type="line"/>
      <point x="-70" y="990" type="line"/>
      <point x="-171" y="990" type="line"/>
      <point x="-248" y="848" type="line"/>
      <point x="-325" y="990" type="line"/>
      <point x="-426" y="990" type="line"/>
    </contour>
  </outline>
</glyph>
<glyph name="uni1BA9" format="2">
  <unicode hex="1BA9"/>
  <outline>
    <contour>
      <point x="-291" y="756" type="line"/>
      <point x="-205" y="756" type="line"/>
      <point x="-70" y="990" type="line"/>
      <point x="-171" y="990" type="line"/>
      <point x="-248" y="848" type="line"/>
      <point x="-264" y="878" type="line"/>
      <point x="-203" y="990" type="line"/>
      <point x="-270" y="990" type="line"/>
      <point x="-297" y="938" type="line"/>
      <point x="-325" y="990" type="line"/>
      <point x="-426" y="990" type="line"/>
    </contour>
  </outline>
</glyph>
<glyph name="uni1BAA" format="2">
  <advance width="290"/>
  <unicode hex="1BAA"/>
  <outline>
    <contour>
      <point x="127" y="-153" type="curve" smooth="yes"/>
      <point x="172" y="-153"/>
      <point x="221" y="-138"/>
      <point x="258" y="-117" type="curve"/>
      <point x="236" y="-53" type="line"/>
      <point x="216" y="-64"/>
      <point x="181" y="-78"/>
      <point x="146" y="-78" type="curve" smooth="yes"/>
      <point x="118" y="-78"/>
      <point x="104" y="-73"/>
      <point x="104" y="-60" type="curve" smooth="yes"/>
      <point x="104" y="-42"/>
      <point x="140" y="-17"/>
      <point x="182" y="16" type="curve" smooth="yes"/>
      <point x="216" y="42"/>
      <point x="248" y="76"/>
      <point x="248" y="124" type="curve" smooth="yes"/>
      <point x="248" y="188"/>
      <point x="189" y="215"/>
      <point x="143" y="222" type="curve"/>
      <point x="239" y="302" type="line"/>
      <point x="239" y="349" type="line"/>
      <point x="8" y="349" type="line"/>
      <point x="-20" y="271" type="line"/>
      <point x="81" y="271" type="line"/>
      <point x="2" y="211" type="line"/>
      <point x="-14" y="163" type="line"/>
      <point x="25" y="163" type="line" smooth="yes"/>
      <point x="131" y="163"/>
      <point x="158" y="149"/>
      <point x="158" y="123" type="curve" smooth="yes"/>
      <point x="158" y="102"/>
      <point x="129" y="79"/>
      <point x="91" y="49" type="curve" smooth="yes"/>
      <point x="44" y="12"/>
      <point x="5" y="-21"/>
      <point x="5" y="-71" type="curve" smooth="yes"/>
      <point x="5" y="-136"/>
      <point x="69" y="-153"/>
    </contour>
  </outline>
</glyph>
<glyph name="uni1BAB" format="2">
  <unicode hex="1BAB"/>
  <outline>
    <contour>
      <point x="109" y="250" type="line"/>
      <point x="160" y="250" type="line"/>
      <point x="160" y="308" type="line"/>
      <point x="218" y="308" type="line"/>
      <point x="218" y="359" type="line"/>
      <point x="160" y="359" type="line"/>
      <point x="160" y="417" type="line"/>
      <point x="109" y="417" type="line"/>
      <point x="109" y="359" type="line"/>
      <point x="51" y="359" type="line"/>
      <point x="51" y="308" type="line"/>
      <point x="109" y="308" type="line"/>
    </contour>
  </outline>
</glyph>
<glyph name="uni1BAC" format="2">
  <unicode hex="1BAC"/>
  <outline>
    <contour>
      <point x="-497" y="-281" type="curve" smooth="yes"/>
      <point x="-340" y="-281"/>
      <point x="-264" y="-166"/>
      <point x="-264" y="-45" type="curve" smooth="yes"/>
      <point x="-264" y="-29" type="line"/>
      <point x="-354" y="-29" type="line"/>
      <point x="-354" y="-47" type="line" smooth="yes"/>
      <point x="-354" y="-104"/>
      <point x="-391" y="-195"/>
      <point x="-499" y="-195" type="curve" smooth="yes"/>
      <point x="-567" y="-195"/>
      <point x="-598" y="-175"/>
      <point x="-598" y="-144" type="curve" smooth="yes"/>
      <point x="-598" y="-112"/>
      <point x="-567" y="-91"/>
      <point x="-517" y="-91" type="curve" smooth="yes"/>
      <point x="-494" y="-91"/>
      <point x="-470" y="-92"/>
      <point x="-458" y="-93" type="curve"/>
      <point x="-458" y="-22" type="line"/>
      <point x="-467" y="-20"/>
      <point x="-489" y="-18"/>
      <point x="-517" y="-18" type="curve" smooth="yes"/>
      <point x="-609" y="-18"/>
      <point x="-693" y="-62"/>
      <point x="-693" y="-144" type="curve" smooth="yes"/>
      <point x="-693" y="-237"/>
      <point x="-607" y="-281"/>
    </contour>
  </outline>
</glyph>
<glyph name="uni1BAD" format="2">
  <unicode hex="1BAD"/>
  <outline>
    <contour>
      <point x="-400" y="-255" type="line"/>
      <point x="-193" y="-255" type="line"/>
      <point x="-193" y="-183" type="line"/>
      <point x="-286" y="-183" type="line"/>
      <point x="-224" y="-43" type="line"/>
      <point x="-433" y="-43" type="line"/>
      <point x="-433" y="-115" type="line"/>
      <point x="-338" y="-115" type="line"/>
    </contour>
    <contour>
      <point x="-628" y="-255" type="line"/>
      <point x="-421" y="-255" type="line"/>
      <point x="-421" y="-183" type="line"/>
      <point x="-514" y="-183" type="line"/>
      <point x="-452" y="-43" type="line"/>
      <point x="-661" y="-43" type="line"/>
      <point x="-661" y="-115" type="line"/>
      <point x="-566" y="-115" type="line"/>
    </contour>
  </outline>
</glyph>
<glyph name="uni1BAE" format="2">
  <advance width="1666"/>
  <unicode hex="1BAE"/>
  <outline>
    <contour>
      <point x="45" y="0" type="line"/>
      <point x="229" y="0" type="line"/>
      <point x="414" y="555" type="line"/>
      <point x="609" y="555" type="line"/>
      <point x="422" y="0" type="line"/>
      <point x="606" y="0" type="line"/>
      <point x="694" y="263" type="line"/>
      <point x="797" y="263" type="line"/>
      <point x="710" y="0" type="line"/>
      <point x="1176" y="0" type="line"/>
      <point x="1359" y="555" type="line"/>
      <point x="1467" y="555" type="line"/>
      <point x="1284" y="0" type="line"/>
      <point x="1482" y="0" type="line"/>
      <point x="1716" y="714" type="line"/>
      <point x="1212" y="714" type="line"/>
      <point x="1033" y="162" type="line"/>
      <point x="952" y="162" type="line"/>
      <point x="1035" y="421" type="line"/>
      <point x="746" y="421" type="line"/>
      <point x="844" y="714" type="line"/>
      <point x="121" y="714" type="line"/>
      <point x="68" y="555" type="line"/>
      <point x="232" y="555" type="line"/>
    </contour>
  </outline>
</glyph>
<glyph name="uni1BAF" format="2">
  <advance width="1830"/>
  <unicode hex="1BAF"/>
  <outline>
    <contour>
      <point x="55" y="0" type="line"/>
      <point x="244" y="0" type="line"/>
      <point x="323" y="238" type="line"/>
      <point x="519" y="238" type="line"/>
      <point x="439" y="0" type="line"/>
      <point x="628" y="0" type="line"/>
      <point x="708" y="238" type="line"/>
      <point x="898" y="238" type="line"/>
      <point x="817" y="0" type="line"/>
      <point x="1317" y="0" type="line"/>
      <point x="1386" y="213" type="line"/>
      <point x="1480" y="0" type="line"/>
      <point x="1668" y="0" type="line"/>
      <point x="1844" y="536" type="line"/>
      <point x="1657" y="536" type="line"/>
      <point x="1554" y="222" type="line"/>
      <point x="1460" y="437" type="line"/>
      <point x="1551" y="714" type="line"/>
      <point x="1364" y="714" type="line"/>
      <point x="1183" y="159" type="line"/>
      <point x="1053" y="159" type="line"/>
      <point x="1134" y="397" type="line"/>
      <point x="761" y="397" type="line"/>
      <point x="866" y="714" type="line"/>
      <point x="86" y="714" type="line"/>
      <point x="33" y="555" type="line"/>
      <point x="242" y="555" type="line"/>
      <point x="188" y="397" type="line"/>
      <point x="86" y="397" type="line"/>
      <point x="33" y="238" type="line"/>
      <point x="135" y="238" type="line"/>
    </contour>
    <contour>
      <point x="376" y="397" type="line"/>
      <point x="428" y="555" type="line"/>
      <point x="626" y="555" type="line"/>
      <point x="572" y="397" type="line"/>
    </contour>
  </outline>
</glyph>
<glyph name="uni1BB0" format="2">
  <advance width="828"/>
  <unicode hex="1BB0"/>
  <outline>
    <contour>
      <point x="419" y="-2" type="curve" smooth="yes"/>
      <point x="617" y="-2"/>
      <point x="778" y="159"/>
      <point x="778" y="357" type="curve" smooth="yes"/>
      <point x="778" y="555"/>
      <point x="617" y="716"/>
      <point x="419" y="716" type="curve" smooth="yes"/>
      <point x="221" y="716"/>
      <point x="60" y="555"/>
      <point x="60" y="357" type="curve" smooth="yes"/>
      <point x="60" y="159"/>
      <point x="221" y="-2"/>
    </contour>
    <contour>
      <point x="419" y="138" type="curve" smooth="yes"/>
      <point x="298" y="138"/>
      <point x="200" y="236"/>
      <point x="200" y="357" type="curve" smooth="yes"/>
      <point x="200" y="477"/>
      <point x="298" y="576"/>
      <point x="419" y="576" type="curve" smooth="yes"/>
      <point x="539" y="576"/>
      <point x="638" y="477"/>
      <point x="638" y="357" type="curve" smooth="yes"/>
      <point x="638" y="236"/>
      <point x="539" y="138"/>
    </contour>
  </outline>
</glyph>
<glyph name="uni1BB1" format="2">
  <advance width="836"/>
  <unicode hex="1BB1"/>
  <outline>
    <contour>
      <point x="71" y="0" type="line"/>
      <point x="698" y="0" type="line"/>
      <point x="826" y="386" type="line"/>
      <point x="448" y="386" type="line"/>
      <point x="388" y="199" type="line"/>
      <point x="522" y="199" type="line"/>
      <point x="533" y="231" type="line"/>
      <point x="591" y="231" type="line"/>
      <point x="565" y="159" type="line"/>
      <point x="311" y="159" type="line"/>
      <point x="442" y="555" type="line"/>
      <point x="552" y="555" type="line"/>
      <point x="571" y="508" type="line"/>
      <point x="747" y="508" type="line"/>
      <point x="678" y="714" type="line"/>
      <point x="89" y="714" type="line"/>
      <point x="18" y="494" type="line"/>
      <point x="169" y="494" type="line"/>
      <point x="189" y="555" type="line"/>
      <point x="255" y="555" type="line"/>
    </contour>
  </outline>
</glyph>
<glyph name="uni1BB2" format="2">
  <advance width="847"/>
  <unicode hex="1BB2"/>
  <outline>
    <contour>
      <point x="89" y="0" type="line"/>
      <point x="735" y="0" type="line"/>
      <point x="820" y="264" type="line"/>
      <point x="638" y="264" type="line"/>
      <point x="606" y="159" type="line"/>
      <point x="323" y="159" type="line"/>
      <point x="346" y="230" type="line"/>
      <point x="549" y="230" type="line"/>
      <point x="602" y="389" type="line"/>
      <point x="399" y="389" type="line"/>
      <point x="506" y="714" type="line"/>
      <point x="92" y="714" type="line"/>
      <point x="20" y="494" type="line"/>
      <point x="171" y="494" type="line"/>
      <point x="191" y="555" type="line"/>
      <point x="272" y="555" type="line"/>
    </contour>
  </outline>
</glyph>
<glyph name="uni1BB3" format="2">
  <advance width="815"/>
  <unicode hex="1BB3"/>
  <outline>
    <contour>
      <point x="75" y="0" type="line"/>
      <point x="733" y="0" type="line"/>
      <point x="768" y="99" type="line"/>
      <point x="695" y="159" type="line" smooth="yes"/>
      <point x="650" y="196"/>
      <point x="615" y="227"/>
      <point x="615" y="239" type="curve" smooth="yes"/>
      <point x="615" y="248"/>
      <point x="622" y="256"/>
      <point x="661" y="256" type="curve" smooth="yes"/>
      <point x="796" y="256" type="line"/>
      <point x="848" y="411" type="line"/>
      <point x="613" y="411" type="line" smooth="yes"/>
      <point x="474" y="411"/>
      <point x="424" y="354"/>
      <point x="424" y="281" type="curve" smooth="yes"/>
      <point x="424" y="247"/>
      <point x="443" y="216"/>
      <point x="468" y="188" type="curve" smooth="yes"/>
      <point x="498" y="154" type="line"/>
      <point x="322" y="154" type="line"/>
      <point x="507" y="714" type="line"/>
      <point x="92" y="714" type="line"/>
      <point x="21" y="494" type="line"/>
      <point x="172" y="494" type="line"/>
      <point x="192" y="555" type="line"/>
      <point x="258" y="555" type="line"/>
    </contour>
  </outline>
</glyph>
<glyph name="uni1BB4" format="2">
  <advance width="655"/>
  <unicode hex="1BB4"/>
  <outline>
    <contour>
      <point x="162" y="0" type="line"/>
      <point x="348" y="0" type="line"/>
      <point x="424" y="227" type="line"/>
      <point x="634" y="227" type="line"/>
      <point x="700" y="430" type="line"/>
      <point x="559" y="430" type="line"/>
      <point x="545" y="386" type="line"/>
      <point x="476" y="386" type="line"/>
      <point x="586" y="714" type="line"/>
      <point x="141" y="714" type="line"/>
      <point x="71" y="494" type="line"/>
      <point x="222" y="494" type="line"/>
      <point x="242" y="555" type="line"/>
      <point x="349" y="555" type="line"/>
      <point x="290" y="386" type="line"/>
      <point x="81" y="386" type="line"/>
      <point x="15" y="183" type="line"/>
      <point x="155" y="183" type="line"/>
      <point x="169" y="227" type="line"/>
      <point x="237" y="227" type="line"/>
    </contour>
  </outline>
</glyph>
<glyph name="uni1BB5" format="2">
  <advance width="1058"/>
  <unicode hex="1BB5"/>
  <outline>
    <contour>
      <point x="109" y="0" type="line"/>
      <point x="984" y="0" type="line"/>
      <point x="801" y="555" type="line"/>
      <point x="882" y="555" type="line"/>
      <point x="902" y="494" type="line"/>
      <point x="1053" y="494" type="line"/>
      <point x="982" y="714" type="line"/>
      <point x="567" y="714" type="line"/>
      <point x="749" y="161" type="line"/>
      <point x="344" y="161" type="line"/>
      <point x="526" y="714" type="line"/>
      <point x="111" y="714" type="line"/>
      <point x="40" y="494" type="line"/>
      <point x="191" y="494" type="line"/>
      <point x="211" y="555" type="line"/>
      <point x="292" y="555" type="line"/>
    </contour>
  </outline>
</glyph>
<glyph name="uni1BB6" format="2">
  <advance width="719"/>
  <unicode hex="1BB6"/>
  <outline>
    <contour>
      <point x="-30" y="0" type="line"/>
      <point x="627" y="0" type="line"/>
      <point x="662" y="99" type="line"/>
      <point x="589" y="159" type="line" smooth="yes"/>
      <point x="544" y="196"/>
      <point x="509" y="227"/>
      <point x="509" y="239" type="curve" smooth="yes"/>
      <point x="509" y="248"/>
      <point x="516" y="256"/>
      <point x="555" y="256" type="curve" smooth="yes"/>
      <point x="690" y="256" type="line"/>
      <point x="742" y="411" type="line"/>
      <point x="507" y="411" type="line" smooth="yes"/>
      <point x="368" y="411"/>
      <point x="318" y="354"/>
      <point x="318" y="281" type="curve" smooth="yes"/>
      <point x="318" y="247"/>
      <point x="337" y="216"/>
      <point x="362" y="188" type="curve" smooth="yes"/>
      <point x="392" y="154" type="line"/>
      <point x="216" y="154" type="line"/>
      <point x="348" y="555" type="line"/>
      <point x="428" y="555" type="line"/>
      <point x="447" y="508" type="line"/>
      <point x="623" y="508" type="line"/>
      <point x="554" y="714" type="line"/>
      <point x="205" y="714" type="line"/>
    </contour>
  </outline>
</glyph>
<glyph name="uni1BB7" format="2">
  <advance width="992"/>
  <unicode hex="1BB7"/>
  <outline>
    <contour>
      <point x="-89" y="0" type="line"/>
      <point x="182" y="0" type="line"/>
      <point x="365" y="555" type="line"/>
      <point x="463" y="555" type="line"/>
      <point x="278" y="0" type="line"/>
      <point x="785" y="0" type="line"/>
      <point x="967" y="555" type="line"/>
      <point x="1045" y="555" type="line"/>
      <point x="1098" y="714" type="line"/>
      <point x="819" y="714" type="line"/>
      <point x="639" y="162" type="line"/>
      <point x="531" y="162" type="line"/>
      <point x="712" y="714" type="line"/>
      <point x="219" y="714" type="line"/>
      <point x="40" y="162" type="line"/>
      <point x="-38" y="162" type="line"/>
    </contour>
  </outline>
</glyph>
<glyph name="uni1BB8" format="2">
  <advance width="936"/>
  <unicode hex="1BB8"/>
  <outline>
    <contour>
      <point x="449" y="-14" type="curve" smooth="yes"/>
      <point x="529" y="-14"/>
      <point x="617" y="18"/>
      <point x="673" y="187" type="curve" smooth="yes"/>
      <point x="795" y="556" type="line"/>
      <point x="818" y="556" type="line"/>
      <point x="845" y="485" type="line"/>
      <point x="1011" y="485" type="line"/>
      <point x="934" y="714" type="line"/>
      <point x="660" y="714" type="line"/>
      <point x="506" y="249" type="line" smooth="yes"/>
      <point x="483" y="181"/>
      <point x="474" y="156"/>
      <point x="448" y="156" type="curve" smooth="yes"/>
      <point x="427" y="156"/>
      <point x="405" y="173"/>
      <point x="369" y="207" type="curve"/>
      <point x="536" y="714" type="line"/>
      <point x="152" y="714" type="line"/>
      <point x="81" y="494" type="line"/>
      <point x="223" y="494" type="line"/>
      <point x="243" y="555" type="line"/>
      <point x="303" y="555" type="line"/>
      <point x="215" y="289" type="line"/>
      <point x="189" y="302"/>
      <point x="157" y="311"/>
      <point x="118" y="311" type="curve" smooth="yes"/>
      <point x="17" y="311"/>
      <point x="-50" y="240"/>
      <point x="-50" y="146" type="curve" smooth="yes"/>
      <point x="-50" y="29"/>
      <point x="37" y="-15"/>
      <point x="131" y="-15" type="curve" smooth="yes"/>
      <point x="192" y="-15"/>
      <point x="256" y="5"/>
      <point x="296" y="53" type="curve"/>
      <point x="341" y="10"/>
      <point x="386" y="-14"/>
    </contour>
    <contour>
      <point x="115" y="94" type="curve" smooth="yes"/>
      <point x="86" y="94"/>
      <point x="69" y="109"/>
      <point x="69" y="133" type="curve" smooth="yes"/>
      <point x="69" y="163"/>
      <point x="91" y="174"/>
      <point x="117" y="174" type="curve" smooth="yes"/>
      <point x="142" y="174"/>
      <point x="162" y="163"/>
      <point x="176" y="147" type="curve"/>
      <point x="166" y="114"/>
      <point x="146" y="94"/>
    </contour>
  </outline>
</glyph>
<glyph name="uni1BB9" format="2">
  <advance width="820"/>
  <unicode hex="1BB9"/>
  <outline>
    <contour>
      <point x="45" y="0" type="line"/>
      <point x="702" y="0" type="line"/>
      <point x="737" y="99" type="line"/>
      <point x="664" y="159" type="line" smooth="yes"/>
      <point x="619" y="196"/>
      <point x="584" y="227"/>
      <point x="584" y="239" type="curve" smooth="yes"/>
      <point x="584" y="248"/>
      <point x="591" y="256"/>
      <point x="630" y="256" type="curve" smooth="yes"/>
      <point x="765" y="256" type="line"/>
      <point x="817" y="411" type="line"/>
      <point x="582" y="411" type="line" smooth="yes"/>
      <point x="443" y="411"/>
      <point x="393" y="354"/>
      <point x="393" y="281" type="curve" smooth="yes"/>
      <point x="393" y="247"/>
      <point x="412" y="216"/>
      <point x="437" y="188" type="curve" smooth="yes"/>
      <point x="467" y="154" type="line"/>
      <point x="291" y="154" type="line"/>
      <point x="423" y="555" type="line"/>
      <point x="503" y="555" type="line"/>
      <point x="522" y="508" type="line"/>
      <point x="698" y="508" type="line"/>
      <point x="629" y="714" type="line"/>
      <point x="91" y="714" type="line"/>
      <point x="20" y="494" type="line"/>
      <point x="162" y="494" type="line"/>
      <point x="182" y="555" type="line"/>
      <point x="228" y="555" type="line"/>
    </contour>
  </outline>
</glyph>
<glyph name="uni1BBA" format="2">
  <advance width="414"/>
  <unicode hex="1BBA"/>
  <outline>
    <contour>
      <point x="41" y="0" type="line"/>
      <point x="227" y="0" type="line"/>
      <point x="464" y="714" type="line"/>
      <point x="147" y="714" type="line"/>
      <point x="95" y="555" type="line"/>
      <point x="225" y="555" type="line"/>
      <point x="205" y="493" type="line"/>
      <point x="85" y="493" type="line"/>
      <point x="32" y="334" type="line"/>
      <point x="153" y="334" type="line"/>
    </contour>
  </outline>
</glyph>
<glyph name="uni1BBB" format="2">
  <advance width="866"/>
  <unicode hex="1BBB"/>
  <outline>
    <contour>
      <point x="136" y="206" type="line"/>
      <point x="748" y="206" type="line"/>
      <point x="916" y="714" type="line"/>
      <point x="537" y="714" type="line"/>
      <point x="484" y="555" type="line"/>
      <point x="682" y="555" type="line"/>
      <point x="621" y="369" type="line"/>
      <point x="368" y="369" type="line"/>
      <point x="483" y="714" type="line"/>
      <point x="108" y="714" type="line"/>
      <point x="55" y="555" type="line"/>
      <point x="250" y="555" type="line"/>
    </contour>
    <contour>
      <point x="67" y="0" type="line"/>
      <point x="679" y="0" type="line"/>
      <point x="733" y="162" type="line"/>
      <point x="121" y="162" type="line"/>
    </contour>
  </outline>
</glyph>
<glyph name="uni1BBC" format="2">
  <advance width="1417"/>
  <unicode hex="1BBC"/>
  <outline>
    <contour>
      <point x="814" y="-370" type="curve" smooth="yes"/>
      <point x="890" y="-370"/>
      <point x="949" y="-335"/>
      <point x="974" y="-305" type="curve"/>
      <point x="1005" y="-334"/>
      <point x="1067" y="-370"/>
      <point x="1149" y="-370" type="curve" smooth="yes"/>
      <point x="1348" y="-370"/>
      <point x="1379" y="-129"/>
      <point x="1386" y="78" type="curve"/>
      <point x="1225" y="78" type="line"/>
      <point x="1225" y="54"/>
      <point x="1225" y="5"/>
      <point x="1221" y="-34" type="curve" smooth="yes"/>
      <point x="1211" y="-129"/>
      <point x="1196" y="-206"/>
      <point x="1151" y="-206" type="curve" smooth="yes"/>
      <point x="1118" y="-206"/>
      <point x="1082" y="-180"/>
      <point x="1057" y="-153" type="curve"/>
      <point x="1369" y="714" type="line"/>
      <point x="957" y="714" type="line"/>
      <point x="902" y="556" type="line"/>
      <point x="1127" y="556" type="line"/>
      <point x="909" y="-51" type="line"/>
      <point x="886" y="-34"/>
      <point x="847" y="-23"/>
      <point x="811" y="-23" type="curve" smooth="yes"/>
      <point x="687" y="-23"/>
      <point x="620" y="-107"/>
      <point x="620" y="-204" type="curve" smooth="yes"/>
      <point x="620" y="-321"/>
      <point x="717" y="-370"/>
    </contour>
    <contour>
      <point x="803" y="-256" type="curve" smooth="yes"/>
      <point x="775" y="-256"/>
      <point x="753" y="-238"/>
      <point x="753" y="-207" type="curve" smooth="yes"/>
      <point x="753" y="-173"/>
      <point x="773" y="-155"/>
      <point x="804" y="-155" type="curve" smooth="yes"/>
      <point x="839" y="-155"/>
      <point x="857" y="-178"/>
      <point x="863" y="-195" type="curve"/>
      <point x="858" y="-226"/>
      <point x="836" y="-256"/>
    </contour>
    <contour>
      <point x="-22" y="0" type="line"/>
      <point x="493" y="0" type="line"/>
      <point x="575" y="257" type="line"/>
      <point x="665" y="0" type="line"/>
      <point x="860" y="0" type="line"/>
      <point x="714" y="419" type="line"/>
      <point x="454" y="419" type="line"/>
      <point x="367" y="163" type="line"/>
      <point x="217" y="163" type="line"/>
      <point x="347" y="555" type="line"/>
      <point x="625" y="555" type="line"/>
      <point x="672" y="714" type="line"/>
      <point x="214" y="714" type="line"/>
    </contour>
  </outline>
</glyph>
<glyph name="uni1BBD" format="2">
  <advance width="1303"/>
  <unicode hex="1BBD"/>
  <outline>
    <contour>
      <point x="94" y="0" type="line"/>
      <point x="972" y="0" type="line"/>
      <point x="1023" y="149" type="line"/>
      <point x="825" y="149" type="line"/>
      <point x="960" y="555" type="line"/>
      <point x="1128" y="555" type="line"/>
      <point x="1071" y="384" type="line"/>
      <point x="979" y="384" type="line"/>
      <point x="925" y="225" type="line"/>
      <point x="1193" y="225" type="line"/>
      <point x="1355" y="714" type="line"/>
      <point x="827" y="714" type="line"/>
      <point x="642" y="149" type="line"/>
      <point x="523" y="149" type="line"/>
      <point x="710" y="714" type="line"/>
      <point x="182" y="714" type="line"/>
      <point x="21" y="225" type="line"/>
      <point x="276" y="225" type="line"/>
      <point x="329" y="384" type="line"/>
      <point x="248" y="384" type="line"/>
      <point x="306" y="555" type="line"/>
      <point x="472" y="555" type="line"/>
      <point x="338" y="149" type="line"/>
      <point x="145" y="149" type="line"/>
    </contour>
  </outline>
</glyph>
<glyph name="uni1BBE" format="2">
  <advance width="1081"/>
  <unicode hex="1BBE"/>
  <outline>
    <contour>
      <point x="9" y="0" type="line"/>
      <point x="1073" y="0" type="line"/>
      <point x="1120" y="149" type="line"/>
      <point x="933" y="149" type="line"/>
      <point x="1122" y="714" type="line"/>
      <point x="635" y="714" type="line"/>
      <point x="583" y="555" type="line"/>
      <point x="892" y="555" type="line"/>
      <point x="756" y="149" type="line"/>
      <point x="399" y="149" type="line"/>
      <point x="588" y="714" type="line"/>
      <point x="104" y="714" type="line"/>
      <point x="51" y="555" type="line"/>
      <point x="358" y="555" type="line"/>
      <point x="223" y="149" type="line"/>
      <point x="56" y="149" type="line"/>
    </contour>
    <contour>
      <point x="69" y="196" type="line"/>
      <point x="192" y="196" type="line"/>
      <point x="294" y="501" type="line"/>
      <point x="67" y="501" type="line"/>
      <point x="24" y="376" type="line"/>
      <point x="128" y="376" type="line"/>
    </contour>
    <contour>
      <point x="603" y="196" type="line"/>
      <point x="726" y="196" type="line"/>
      <point x="828" y="501" type="line"/>
      <point x="601" y="501" type="line"/>
      <point x="558" y="376" type="line"/>
      <point x="662" y="376" type="line"/>
    </contour>
  </outline>
</glyph>
<glyph name="uni1BBF" format="2">
  <advance width="735"/>
  <unicode hex="1BBF"/>
  <outline>
    <contour>
      <point x="367" y="0" type="line"/>
      <point x="547" y="0" type="line"/>
      <point x="785" y="714" type="line"/>
      <point x="138" y="714" type="line"/>
      <point x="85" y="555" type="line"/>
      <point x="554" y="555" type="line"/>
    </contour>
    <contour>
      <point x="101" y="6" type="line"/>
      <point x="322" y="6" type="line"/>
      <point x="366" y="140" type="line"/>
      <point x="145" y="140" type="line"/>
    </contour>
    <contour>
      <point x="94" y="184" type="line"/>
      <point x="380" y="184" type="line"/>
      <point x="424" y="318" type="line"/>
      <point x="138" y="318" type="line"/>
    </contour>
    <contour>
      <point x="86" y="362" type="line"/>
      <point x="437" y="362" type="line"/>
      <point x="482" y="496" type="line"/>
      <point x="131" y="496" type="line"/>
    </contour>
  </outline>
</glyph>
<glyph name="uni1CC0" format="2">
  <advance width="1038"/>
  <unicode hex="1CC0"/>
  <outline>
    <contour>
      <point x="359" y="-133" type="line"/>
      <point x="446" y="-133" type="line"/>
      <point x="518" y="-42" type="line"/>
      <point x="590" y="-133" type="line"/>
      <point x="677" y="-133" type="line"/>
      <point x="592" y="-25" type="line"/>
      <point x="592" y="50" type="line"/>
      <point x="701" y="73"/>
      <point x="802" y="175"/>
      <point x="825" y="285" type="curve"/>
      <point x="900" y="285" type="line"/>
      <point x="1008" y="200" type="line"/>
      <point x="1008" y="287" type="line"/>
      <point x="917" y="359" type="line"/>
      <point x="1008" y="431" type="line"/>
      <point x="1008" y="518" type="line"/>
      <point x="900" y="433" type="line"/>
      <point x="825" y="433" type="line"/>
      <point x="802" y="543"/>
      <point x="701" y="643"/>
      <point x="592" y="666" type="curve"/>
      <point x="592" y="741" type="line"/>
      <point x="677" y="849" type="line"/>
      <point x="590" y="849" type="line"/>
      <point x="518" y="759" type="line"/>
      <point x="446" y="849" type="line"/>
      <point x="359" y="849" type="line"/>
      <point x="444" y="741" type="line"/>
      <point x="444" y="666" type="line"/>
      <point x="335" y="643"/>
      <point x="232" y="543"/>
      <point x="209" y="433" type="curve"/>
      <point x="134" y="433" type="line"/>
      <point x="26" y="518" type="line"/>
      <point x="26" y="431" type="line"/>
      <point x="117" y="359" type="line"/>
      <point x="26" y="287" type="line"/>
      <point x="26" y="200" type="line"/>
      <point x="134" y="285" type="line"/>
      <point x="209" y="285" type="line"/>
      <point x="232" y="175"/>
      <point x="335" y="73"/>
      <point x="444" y="50" type="curve"/>
      <point x="444" y="-25" type="line"/>
    </contour>
    <contour>
      <point x="518" y="175" type="curve" smooth="yes"/>
      <point x="418" y="175"/>
      <point x="333" y="258"/>
      <point x="333" y="358" type="curve" smooth="yes"/>
      <point x="333" y="458"/>
      <point x="418" y="541"/>
      <point x="518" y="541" type="curve" smooth="yes"/>
      <point x="618" y="541"/>
      <point x="700" y="458"/>
      <point x="700" y="358" type="curve" smooth="yes"/>
      <point x="700" y="258"/>
      <point x="618" y="175"/>
    </contour>
    <contour>
      <point x="518" y="254" type="curve" smooth="yes"/>
      <point x="574" y="254"/>
      <point x="622" y="302"/>
      <point x="622" y="358" type="curve" smooth="yes"/>
      <point x="622" y="414"/>
      <point x="574" y="462"/>
      <point x="518" y="462" type="curve" smooth="yes"/>
      <point x="462" y="462"/>
      <point x="414" y="414"/>
      <point x="414" y="358" type="curve" smooth="yes"/>
      <point x="414" y="302"/>
      <point x="462" y="254"/>
    </contour>
    <contour>
      <point x="518" y="317" type="curve" smooth="yes"/>
      <point x="495" y="317"/>
      <point x="477" y="335"/>
      <point x="477" y="358" type="curve" smooth="yes"/>
      <point x="477" y="381"/>
      <point x="495" y="399"/>
      <point x="518" y="399" type="curve" smooth="yes"/>
      <point x="541" y="399"/>
      <point x="559" y="381"/>
      <point x="559" y="358" type="curve" smooth="yes"/>
      <point x="559" y="335"/>
      <point x="541" y="317"/>
    </contour>
  </outline>
</glyph>
<glyph name="uni1CC1" format="2">
  <advance width="674"/>
  <unicode hex="1CC1"/>
  <outline>
    <contour>
      <point x="344" y="52" type="curve" smooth="yes"/>
      <point x="513" y="52"/>
      <point x="650" y="189"/>
      <point x="650" y="358" type="curve" smooth="yes"/>
      <point x="650" y="527"/>
      <point x="513" y="664"/>
      <point x="344" y="664" type="curve" smooth="yes"/>
      <point x="175" y="664"/>
      <point x="38" y="527"/>
      <point x="38" y="358" type="curve" smooth="yes"/>
      <point x="38" y="189"/>
      <point x="175" y="52"/>
    </contour>
    <contour>
      <point x="184" y="264" type="line"/>
      <point x="169" y="291"/>
      <point x="158" y="323"/>
      <point x="158" y="358" type="curve" smooth="yes"/>
      <point x="158" y="400"/>
      <point x="172" y="431"/>
      <point x="184" y="450" type="curve"/>
      <point x="277" y="357" type="line"/>
    </contour>
    <contour>
      <point x="344" y="175" type="curve" smooth="yes"/>
      <point x="310" y="175"/>
      <point x="277" y="185"/>
      <point x="252" y="200" type="curve"/>
      <point x="343" y="291" type="line"/>
      <point x="434" y="200" type="line"/>
      <point x="409" y="185"/>
      <point x="377" y="175"/>
    </contour>
    <contour>
      <point x="343" y="423" type="line"/>
      <point x="250" y="516" type="line"/>
      <point x="277" y="531"/>
      <point x="309" y="541"/>
      <point x="344" y="541" type="curve" smooth="yes"/>
      <point x="378" y="541"/>
      <point x="410" y="531"/>
      <point x="436" y="516" type="curve"/>
    </contour>
    <contour>
      <point x="500" y="266" type="curve"/>
      <point x="409" y="357" type="line"/>
      <point x="501" y="449" type="line"/>
      <point x="515" y="423"/>
      <point x="525" y="391"/>
      <point x="525" y="358" type="curve" smooth="yes"/>
      <point x="525" y="324"/>
      <point x="515" y="292"/>
    </contour>
  </outline>
</glyph>
<glyph name="uni1CC2" format="2">
  <advance width="674"/>
  <unicode hex="1CC2"/>
  <outline>
    <contour>
      <point x="344" y="52" type="curve" smooth="yes"/>
      <point x="513" y="52"/>
      <point x="650" y="189"/>
      <point x="650" y="358" type="curve" smooth="yes"/>
      <point x="650" y="527"/>
      <point x="513" y="664"/>
      <point x="344" y="664" type="curve" smooth="yes"/>
      <point x="175" y="664"/>
      <point x="38" y="527"/>
      <point x="38" y="358" type="curve" smooth="yes"/>
      <point x="38" y="189"/>
      <point x="175" y="52"/>
    </contour>
    <contour>
      <point x="344" y="175" type="curve" smooth="yes"/>
      <point x="298" y="175"/>
      <point x="264" y="192"/>
      <point x="237" y="210" type="curve"/>
      <point x="255" y="225"/>
      <point x="297" y="245"/>
      <point x="344" y="245" type="curve" smooth="yes"/>
      <point x="391" y="245"/>
      <point x="432" y="225"/>
      <point x="450" y="210" type="curve"/>
      <point x="424" y="192"/>
      <point x="389" y="175"/>
    </contour>
    <contour>
      <point x="174" y="284" type="curve"/>
      <point x="166" y="302"/>
      <point x="158" y="329"/>
      <point x="158" y="358" type="curve" smooth="yes"/>
      <point x="158" y="387"/>
      <point x="166" y="414"/>
      <point x="174" y="432" type="curve"/>
      <point x="205" y="410"/>
      <point x="271" y="377"/>
      <point x="344" y="377" type="curve" smooth="yes"/>
      <point x="417" y="377"/>
      <point x="478" y="410"/>
      <point x="510" y="432" type="curve"/>
      <point x="519" y="409"/>
      <point x="525" y="387"/>
      <point x="525" y="358" type="curve" smooth="yes"/>
      <point x="525" y="329"/>
      <point x="519" y="307"/>
      <point x="510" y="284" type="curve"/>
      <point x="478" y="306"/>
      <point x="417" y="339"/>
      <point x="344" y="339" type="curve" smooth="yes"/>
      <point x="271" y="339"/>
      <point x="205" y="306"/>
    </contour>
    <contour>
      <point x="344" y="471" type="curve" smooth="yes"/>
      <point x="297" y="471"/>
      <point x="255" y="491"/>
      <point x="237" y="506" type="curve"/>
      <point x="264" y="524"/>
      <point x="298" y="541"/>
      <point x="344" y="541" type="curve" smooth="yes"/>
      <point x="389" y="541"/>
      <point x="424" y="524"/>
      <point x="450" y="506" type="curve"/>
      <point x="432" y="491"/>
      <point x="391" y="471"/>
    </contour>
  </outline>
</glyph>
<glyph name="uni1CC3" format="2">
  <advance width="674"/>
  <unicode hex="1CC3"/>
  <outline>
    <contour>
      <point x="344" y="52" type="curve" smooth="yes"/>
      <point x="513" y="52"/>
      <point x="650" y="189"/>
      <point x="650" y="358" type="curve" smooth="yes"/>
      <point x="650" y="527"/>
      <point x="513" y="664"/>
      <point x="344" y="664" type="curve" smooth="yes"/>
      <point x="175" y="664"/>
      <point x="38" y="527"/>
      <point x="38" y="358" type="curve" smooth="yes"/>
      <point x="38" y="189"/>
      <point x="175" y="52"/>
    </contour>
    <contour>
      <point x="344" y="175" type="curve" smooth="yes"/>
      <point x="244" y="175"/>
      <point x="161" y="258"/>
      <point x="161" y="358" type="curve" smooth="yes"/>
      <point x="161" y="458"/>
      <point x="244" y="541"/>
      <point x="344" y="541" type="curve" smooth="yes"/>
      <point x="444" y="541"/>
      <point x="527" y="458"/>
      <point x="527" y="358" type="curve" smooth="yes"/>
      <point x="527" y="258"/>
      <point x="444" y="175"/>
    </contour>
  </outline>
</glyph>
<glyph name="uni1CC4" format="2">
  <advance width="2114"/>
  <unicode hex="1CC4"/>
  <outline>
    <contour>
      <point x="1232" y="-370" type="curve" smooth="yes"/>
      <point x="1308" y="-370"/>
      <point x="1367" y="-335"/>
      <point x="1392" y="-305" type="curve"/>
      <point x="1423" y="-334"/>
      <point x="1485" y="-370"/>
      <point x="1567" y="-370" type="curve" smooth="yes"/>
      <point x="1669" y="-370"/>
      <point x="1736" y="-300"/>
      <point x="1777" y="-228" type="curve"/>
      <point x="1662" y="-136" type="line"/>
      <point x="1629" y="-179"/>
      <point x="1603" y="-206"/>
      <point x="1569" y="-206" type="curve" smooth="yes"/>
      <point x="1536" y="-206"/>
      <point x="1500" y="-180"/>
      <point x="1475" y="-153" type="curve"/>
      <point x="1767" y="714" type="line"/>
      <point x="1387" y="714" type="line"/>
      <point x="1332" y="557" type="line"/>
      <point x="1527" y="557" type="line"/>
      <point x="1327" y="-51" type="line"/>
      <point x="1304" y="-34"/>
      <point x="1265" y="-23"/>
      <point x="1229" y="-23" type="curve" smooth="yes"/>
      <point x="1105" y="-23"/>
      <point x="1038" y="-107"/>
      <point x="1038" y="-204" type="curve" smooth="yes"/>
      <point x="1038" y="-321"/>
      <point x="1135" y="-370"/>
    </contour>
    <contour>
      <point x="-22" y="0" type="line"/>
      <point x="493" y="0" type="line"/>
      <point x="575" y="257" type="line"/>
      <point x="665" y="0" type="line"/>
      <point x="860" y="0" type="line"/>
      <point x="714" y="419" type="line"/>
      <point x="454" y="419" type="line"/>
      <point x="367" y="163" type="line"/>
      <point x="217" y="163" type="line"/>
      <point x="348" y="558" type="line"/>
      <point x="626" y="558" type="line"/>
      <point x="672" y="714" type="line"/>
      <point x="214" y="714" type="line"/>
    </contour>
    <contour>
      <point x="1221" y="-256" type="curve" smooth="yes"/>
      <point x="1193" y="-256"/>
      <point x="1171" y="-238"/>
      <point x="1171" y="-207" type="curve" smooth="yes"/>
      <point x="1171" y="-173"/>
      <point x="1191" y="-155"/>
      <point x="1222" y="-155" type="curve" smooth="yes"/>
      <point x="1257" y="-155"/>
      <point x="1275" y="-178"/>
      <point x="1281" y="-195" type="curve"/>
      <point x="1276" y="-226"/>
      <point x="1254" y="-256"/>
    </contour>
    <contour>
      <point x="905" y="2" type="line"/>
      <point x="1254" y="2" type="line"/>
      <point x="1307" y="159" type="line"/>
      <point x="958" y="159" type="line"/>
    </contour>
    <contour>
      <point x="844" y="187" type="line"/>
      <point x="1316" y="187" type="line"/>
      <point x="1369" y="344" type="line"/>
      <point x="897" y="344" type="line"/>
    </contour>
    <contour>
      <point x="789" y="372" type="line"/>
      <point x="1379" y="372" type="line"/>
      <point x="1431" y="529" type="line"/>
      <point x="841" y="529" type="line"/>
    </contour>
    <contour>
      <point x="688" y="558" type="line"/>
      <point x="1258" y="558" type="line"/>
      <point x="1310" y="714" type="line"/>
      <point x="740" y="714" type="line"/>
    </contour>
    <contour>
      <point x="1626" y="3" type="line"/>
      <point x="1935" y="3" type="line"/>
      <point x="1987" y="159" type="line"/>
      <point x="1678" y="159" type="line"/>
    </contour>
    <contour>
      <point x="1688" y="188" type="line"/>
      <point x="1997" y="188" type="line"/>
      <point x="2049" y="344" type="line"/>
      <point x="1740" y="344" type="line"/>
    </contour>
    <contour>
      <point x="1750" y="373" type="line"/>
      <point x="2059" y="373" type="line"/>
      <point x="2111" y="529" type="line"/>
      <point x="1802" y="529" type="line"/>
    </contour>
    <contour>
      <point x="1809" y="558" type="line"/>
      <point x="2118" y="558" type="line"/>
      <point x="2170" y="714" type="line"/>
      <point x="1861" y="714" type="line"/>
    </contour>
  </outline>
</glyph>
<glyph name="uni1CC5" format="2">
  <advance width="828"/>
  <unicode hex="1CC5"/>
  <outline>
    <contour>
      <point x="52" y="0" type="line"/>
      <point x="236" y="0" type="line"/>
      <point x="474" y="714" type="line"/>
      <point x="98" y="714" type="line"/>
      <point x="45" y="555" type="line"/>
      <point x="239" y="555" type="line"/>
    </contour>
    <contour>
      <point x="336" y="3" type="line"/>
      <point x="645" y="3" type="line"/>
      <point x="697" y="159" type="line"/>
      <point x="388" y="159" type="line"/>
    </contour>
    <contour>
      <point x="398" y="188" type="line"/>
      <point x="707" y="188" type="line"/>
      <point x="759" y="344" type="line"/>
      <point x="450" y="344" type="line"/>
    </contour>
    <contour>
      <point x="460" y="373" type="line"/>
      <point x="769" y="373" type="line"/>
      <point x="821" y="529" type="line"/>
      <point x="512" y="529" type="line"/>
    </contour>
    <contour>
      <point x="519" y="558" type="line"/>
      <point x="828" y="558" type="line"/>
      <point x="880" y="714" type="line"/>
      <point x="571" y="714" type="line"/>
    </contour>
  </outline>
</glyph>
<glyph name="uni1CC6" format="2">
  <advance width="1438"/>
  <unicode hex="1CC6"/>
  <outline>
    <contour>
      <point x="-22" y="0" type="line"/>
      <point x="493" y="0" type="line"/>
      <point x="575" y="257" type="line"/>
      <point x="665" y="0" type="line"/>
      <point x="860" y="0" type="line"/>
      <point x="714" y="419" type="line"/>
      <point x="454" y="419" type="line"/>
      <point x="367" y="163" type="line"/>
      <point x="217" y="163" type="line"/>
      <point x="347" y="555" type="line"/>
      <point x="625" y="555" type="line"/>
      <point x="672" y="714" type="line"/>
      <point x="214" y="714" type="line"/>
    </contour>
    <contour>
      <point x="908" y="10" type="line"/>
      <point x="1257" y="10" type="line"/>
      <point x="1307" y="159" type="line"/>
      <point x="958" y="159" type="line"/>
    </contour>
    <contour>
      <point x="847" y="195" type="line"/>
      <point x="1319" y="195" type="line"/>
      <point x="1369" y="344" type="line"/>
      <point x="897" y="344" type="line"/>
    </contour>
    <contour>
      <point x="791" y="380" type="line"/>
      <point x="1381" y="380" type="line"/>
      <point x="1431" y="529" type="line"/>
      <point x="841" y="529" type="line"/>
    </contour>
    <contour>
      <point x="690" y="565" type="line"/>
      <point x="1440" y="565" type="line"/>
      <point x="1490" y="714" type="line"/>
      <point x="740" y="714" type="line"/>
    </contour>
  </outline>
</glyph>
<glyph name="uni1CC7" format="2">
  <advance width="1804"/>
  <unicode hex="1CC7"/>
  <outline>
    <contour>
      <point x="356" y="0" type="line"/>
      <point x="861" y="0" type="line"/>
      <point x="932" y="216" type="line"/>
      <point x="1061" y="0" type="line"/>
      <point x="1213" y="0" type="line"/>
      <point x="1451" y="714" type="line"/>
      <point x="916" y="714" type="line"/>
      <point x="853" y="519" type="line"/>
      <point x="1035" y="519" type="line"/>
      <point x="1051" y="565" type="line"/>
      <point x="1217" y="565" type="line"/>
      <point x="1109" y="245" type="line"/>
      <point x="966" y="474" type="line"/>
      <point x="827" y="474" type="line"/>
      <point x="722" y="159" type="line"/>
      <point x="593" y="159" type="line"/>
      <point x="724" y="555" type="line"/>
      <point x="798" y="555" type="line"/>
      <point x="848" y="714" type="line"/>
      <point x="590" y="714" type="line"/>
    </contour>
    <contour>
      <point x="-56" y="10" type="line"/>
      <point x="253" y="10" type="line"/>
      <point x="303" y="159" type="line"/>
      <point x="-6" y="159" type="line"/>
    </contour>
    <contour>
      <point x="6" y="195" type="line"/>
      <point x="315" y="195" type="line"/>
      <point x="365" y="344" type="line"/>
      <point x="56" y="344" type="line"/>
    </contour>
    <contour>
      <point x="68" y="380" type="line"/>
      <point x="377" y="380" type="line"/>
      <point x="427" y="529" type="line"/>
      <point x="118" y="529" type="line"/>
    </contour>
    <contour>
      <point x="127" y="565" type="line"/>
      <point x="436" y="565" type="line"/>
      <point x="486" y="714" type="line"/>
      <point x="177" y="714" type="line"/>
    </contour>
    <contour>
      <point x="1314" y="10" type="line"/>
      <point x="1623" y="10" type="line"/>
      <point x="1673" y="159" type="line"/>
      <point x="1364" y="159" type="line"/>
    </contour>
    <contour>
      <point x="1376" y="195" type="line"/>
      <point x="1685" y="195" type="line"/>
      <point x="1735" y="344" type="line"/>
      <point x="1426" y="344" type="line"/>
    </contour>
    <contour>
      <point x="1438" y="380" type="line"/>
      <point x="1747" y="380" type="line"/>
      <point x="1797" y="529" type="line"/>
      <point x="1488" y="529" type="line"/>
    </contour>
    <contour>
      <point x="1497" y="565" type="line"/>
      <point x="1806" y="565" type="line"/>
      <point x="1856" y="714" type="line"/>
      <point x="1547" y="714" type="line"/>
    </contour>
  </outline>
</glyph>
